Coordinates
version=1
nRows=16
nColumns=33
inDegrees=yes

Units are S.I. units (second, meters, Newtons, ...)
Angles are in degrees.

endheader
time	ground_thorax_rot_x	ground_thorax_rot_y	ground_thorax_rot_z	ground_thorax_tx	ground_thorax_ty	ground_thorax_tz	clav_prot_r	clav_elev_r	scapula_abduction_r	scapula_elevation_r	scapula_upward_rot_r	scapula_winging_r	shoulder_elv_r	plane_of_elev_r	axial_rot_r	elbow_flexion_r	pro_sup_r	wrist_flex_r	wrist_dev_r	clav_prot_l	clav_elev_l	scapula_abduction_l	scapula_elevation_l	scapula_upward_rot_l	scapula_winging_l	shoulder_elv_l	plane_of_elev_l	axial_rot_l	elbow_flexion_l	pro_sup_l	wrist_flex_l	wrist_dev_l
      1.88000000	      0.75406728	      2.04723765	     -1.59079242	     -0.14305776	      0.98671376	      0.00434116	     -4.24653661	     -5.44412232	     -4.28021217	      2.72202346	     -1.24855853	      0.51914201	     44.62124921	    -16.45693754	     20.92464010	     60.42491019	    -21.45503861	    -11.96765384	      7.36574616	      0.55596671	     -5.41707041	     -4.27089994	     -3.11404980	     -5.02584939	      0.56909895	     42.87307348	    -16.07407334	     -6.90854442	     64.75269911	     14.43822701	     17.52433977	     17.26462637
      1.89000000	      0.81486282	      1.95905268	     -1.76231598	     -0.14305610	      0.98714189	      0.00425139	     -3.89263037	     -6.12850751	     -3.54967776	      2.12361189	     -1.31532001	      0.54730302	     44.65902296	    -15.25550726	     20.40929241	     57.75772441	    -21.53375421	    -12.63765176	      7.54426830	      0.92828407	     -6.09852657	     -5.12407093	     -2.39750255	     -4.78122511	      0.67572571	     42.93631537	    -14.72226564	     -6.69505295	     61.46018058	     14.33055451	     17.99256034	     17.73436129
      1.90000000	      0.81872100	      1.90902995	     -1.41145400	     -0.14339758	      0.98672454	      0.00404075	     -3.43255984	     -6.32679164	     -2.95005250	      2.19151281	     -1.92006779	      0.54809383	     44.70589506	    -13.56493546	     19.66375033	     54.75255627	    -21.98071981	    -13.95307145	      8.54674556	      1.40149893	     -6.13384081	     -5.97884264	     -2.35525495	     -4.74657577	      0.94300496	     42.58801619	    -12.86007359	     -6.28233119	     57.64160001	     13.41608203	     19.34874555	     18.08562382
      1.91000000	      0.85611429	      1.83683353	     -1.00802828	     -0.14339408	      0.98740205	      0.00392088	     -3.00152362	     -7.00847123	     -2.11264644	      1.61072450	     -2.01582681	      0.56002498	     44.76135794	    -12.93886819	     19.79456440	     51.98383488	    -21.87743870	    -14.46667371	      8.52550435	      1.82180507	     -6.91641977	     -6.88305699	     -1.58715373	     -4.58704518	      1.02441137	     42.70484267	    -12.19121742	     -6.54942619	     54.28193671	     13.60862443	     19.60591622	     18.49013965
      1.92000000	      0.91259802	      1.73339240	     -1.19083168	     -0.14395289	      0.98627534	      0.00368518	     -2.48618014	     -7.01856891	     -1.49190909	      1.90334323	     -2.74189464	      0.50420857	     45.06888129	    -10.41577285	     18.81965665	     48.73627199	    -22.44528867	    -15.81264764	      9.97511741	      2.42268755	     -6.63532919	     -7.93398275	     -1.82188885	     -4.52156248	      1.47292607	     42.19691108	     -9.48224843	     -5.55219596	     49.83517539	     12.29319769	     21.23859090	     18.13003113
      1.93000000	      0.96101841	      1.67275325	     -1.18826243	     -0.14395849	      0.98671941	      0.00357856	     -2.14533491	     -7.62679729	     -0.95804277	      1.51063516	     -3.14367916	      0.60222104	     45.31691679	     -9.02959120	     18.32764938	     45.69781238	    -22.42024995	    -16.44234057	     10.44588426	      2.89570711	     -7.21333446	     -8.86542309	     -1.26799297	     -4.43068742	      1.61965341	     42.12851892	     -8.02044470	     -4.82401594	     45.83915786	     12.12813880	     21.79549400	     18.07983864
      1.94000000	      0.98818388	      1.55724273	     -1.33206579	     -0.14411297	      0.98688633	      0.00351848	     -1.70481908	     -8.12826337	     -0.15031141	      1.09558935	     -3.23946337	      0.55894219	     45.43967677	     -7.72073937	     18.30696848	     42.77827057	    -22.31398724	    -16.96876658	     10.74206927	      3.41254849	     -7.72093110	     -9.91627754	     -0.71924238	     -4.18666615	      1.84512293	     42.17448794	     -6.67682944	     -4.55015757	     41.96505633	     12.10766461	     22.18553717	     18.08993092
      1.95000000	      1.02650028	      1.50001697	     -0.93395199	     -0.14425957	      0.98652042	      0.00338622	     -1.39324904	     -8.18253669	      0.19778978	      1.26712725	     -3.77464335	      0.54750162	     45.40715415	     -5.99442856	     17.88196575	     39.52363773	    -22.30952832	    -17.46265551	     11.61043702	      3.97203033	     -7.74254887	    -10.84471269	     -0.75754990	     -4.31886598	      2.16107337	     41.74902455	     -4.82581548	     -3.37667762	     37.67305390	     11.68419328	     22.75612228	     17.33690883
      1.96000000	      0.96229133	      1.39275946	     -0.51627438	     -0.14421001	      0.98730340	      0.00344317	     -0.98303804	     -8.77569554	      0.93675628	      0.78455518	     -3.91451362	      0.55383257	     45.28397633	     -5.42528274	     18.15300479	     36.84410127	    -22.04913992	    -17.87352802	     11.56359866	      4.40133088	     -8.43812304	    -11.70890226	     -0.07767250	     -4.16811180	      2.24708584	     41.90171235	     -4.42588805	     -3.54952219	     34.37401042	     12.05284623	     22.83530397	     17.66274274
      1.97000000	      1.11813246	      1.31932157	     -0.71189708	     -0.14444132	      0.98648332	      0.00341124	     -0.78101527	     -8.51005259	      1.16268226	      1.13906369	     -4.17567391	      0.43310982	     45.22350352	     -3.08220291	     17.63507458	     33.61119979	    -21.84055847	    -17.92054815	     12.51559255	      5.10433410	     -8.31308429	    -12.81433444	     -0.30675580	     -4.44801292	      2.69014447	     41.65220955	     -1.91279819	     -1.72456234	     30.22060876	     11.94108279	     22.68193928	     16.52231319
      1.98000000	      1.14647001	      1.35482300	     -0.61781809	     -0.14471135	      0.98626886	      0.00357667	     -0.61203065	     -8.45512296	      1.32431543	      1.33298091	     -4.52164078	      0.40958054	     45.16531992	     -1.34435686	     17.52246206	     30.76316704	    -21.20587960	    -17.77002792	     13.27118387	      5.97616572	     -8.45128779	    -14.20627428	     -0.32639922	     -4.79310071	      3.16155899	     41.86242530	     -0.39942732	     -0.88828265	     26.94507139	     12.67582180	     22.04214629	     15.69191505
      1.99000000	      1.15545483	      1.23484811	     -0.76554973	     -0.14464893	      0.98682154	      0.00362347	     -0.34780774	     -8.85909349	      1.86779809	      0.92762758	     -4.42746282	      0.37491195	     45.12512221	     -0.45123199	     17.77193421	     28.52427381	    -20.75701670	    -17.98265598	     13.29618496	      6.47957907	     -8.88691008	    -15.15062045	      0.11008244	     -4.66188993	      3.38761319	     42.09261230	      0.32055003	     -0.94965456	     24.54178526	     13.25581158	     21.73236013	     15.86862487
      2.00000000	      1.20061750	      1.32917460	     -0.53486390	     -0.14455106	      0.98624171	      0.00392765	     -0.54307627	     -8.37370151	      1.42336474	      1.42320030	     -4.55548903	      0.36009649	     44.59602507	      1.37815283	     17.73690411	     26.02709221	    -19.89365188	    -17.56472758	     13.93289468	      7.27448164	     -8.73831555	    -16.28012434	     -0.27821094	     -5.29806023	      3.86999707	     42.16442707	      2.04453529	      0.16697684	     21.99686723	     14.46975770	     19.85714669	     15.33356989
      2.01000000	      1.13046409	      1.18534774	     -0.51389758	     -0.14435486	      0.98706991	      0.00404311	     -0.32213823	     -8.74902132	      1.86867493	      1.06407586	     -4.51296305	      0.35180155	     44.47015476	      1.89661998	     18.01061803	     24.42306982	    -19.54032270	    -17.77909705	     13.85264828	      7.61686358	     -9.09901619	    -16.92743093	      0.08573115	     -5.18258909	      4.01386775	     42.36631798	      2.32915474	     -0.11524765	     20.46727431	     14.95223671	     19.58339852	     15.58647192
      2.02000000	      1.09291362	      1.03655374	     -0.77432883	     -0.14422190	      0.98758456	      0.00415517	     -0.19224906	     -8.93401254	      2.18606709	      0.82023725	     -4.32492756	      0.30181781	     44.30734946	      2.73504634	     18.24467779	     22.93673981	    -19.12773706	    -17.89505590	     13.77542780	      7.95638947	     -9.29379265	    -17.52814068	      0.26765391	     -5.15381295	      4.19520145	     42.64891615	      2.94938092	     -0.30998741	     19.29726357	     15.63174805	     18.90077798	     15.77657797
      2.03000000	      1.06495676	      0.95626252	     -0.68450829	     -0.14330661	      0.98792887	      0.00421856	     -0.18044862	     -8.99791151	      2.21808725	      0.76371710	     -4.32965563	      0.31330516	     44.22697771	      2.86292812	     18.25275454	     22.93230427	    -19.10921665	    -17.88863210	     13.77589670	      7.99922027	     -9.37904048	    -17.59363183	      0.33967770	     -5.16362088	      4.19013641	     42.59356137	      3.09080965	     -0.33669629	     19.30727499	     15.66951711	     18.85567865	     15.77347045
